<svg xmlns="http://www.w3.org/2000/svg" viewBox="0 0 182.44 146.85"><title>Asset 5</title><g id="Layer_2" data-name="Layer 2"><g id="Layer_1-2" data-name="Layer 1"><path d="M182.44,38.93a38.91,38.91,0,0,0-72-20.54A63.89,63.89,0,0,0,100,15.71a67.85,67.85,0,0,0-8.55-.83H91a67.69,67.69,0,0,0-8.54.83A63.64,63.64,0,0,0,72,18.39,38.92,38.92,0,1,0,23.27,74.55c-3.52,15.12-1.46,29.63,6.31,41.88,5.91,9.3,15.32,17.09,27.22,22.52a90.32,90.32,0,0,0,34.27,7.9h.3a90.37,90.37,0,0,0,34.28-7.9c11.89-5.43,21.3-13.22,27.21-22.52,7.77-12.25,9.83-26.76,6.31-41.88A39,39,0,0,0,182.44,38.93ZM26.61,64A27.92,27.92,0,1,1,61.79,22.91,75.43,75.43,0,0,0,34.68,48.45,90.65,90.65,0,0,0,26.61,64Zm117,46.56c-10.64,16.76-33.93,24.78-52.35,25.32-18.42-.54-41.71-8.56-52.35-25.32-4.64-7.31-13.43-27.4,5.06-56.13,9.7-15.07,24.41-25.21,40.35-27.83a55.48,55.48,0,0,1,6.94-.69,55.48,55.48,0,0,1,6.94.69c16,2.62,30.65,12.76,40.35,27.83C157,83.13,148.21,103.22,143.57,110.53ZM155.83,64a90.65,90.65,0,0,0-8.07-15.52,75.43,75.43,0,0,0-27.11-25.54A27.92,27.92,0,1,1,155.83,64Z"/><circle cx="122.87" cy="79.86" r="8.45"/><circle cx="59.57" cy="79.86" r="8.45"/><path d="M93.21,71.9a9.82,9.82,0,0,0-2-.31,10,10,0,0,0-2,.31C84.94,73,81,77.39,78.44,83.82c-1.61,4.07-5,14.57-1.2,24.17,2.87,7.31,9.08,10.8,14,11,4.88-.21,11.09-3.7,14-11,3.77-9.61.42-20.1-1.2-24.17C101.44,77.39,97.51,73,93.21,71.9Z"/></g></g></svg>